<svg width="360" height="800" viewBox="0 0 360 800" fill="none" xmlns="http://www.w3.org/2000/svg">
<rect width="360" height="800" fill="#1E1E1E"/>
<g clip-path="url(#clip0_0_1)">
<rect width="360" height="800" fill="white"/>
<path d="M0.796712 530.831C0.96973 499.63 23.5703 473.081 54.3428 467.929L57.7305 467.362C90.9548 461.799 122.357 484.345 127.71 517.603V517.603C138.123 582.304 229.479 586.906 246.342 523.58L250.099 509.472C257.868 480.297 287.261 462.439 316.734 468.986V468.986C342.618 474.736 360.986 497.762 360.839 524.277L359.215 816.996C358.952 864.492 320.236 902.781 272.74 902.518L84.7426 901.475C37.2469 901.212 -1.04251 862.496 -0.779123 815L0.796712 530.831Z" fill="#F4CB37"/>
<rect x="-74" y="-121" width="286" height="300" rx="136" fill="#FAA90C"/>
</g>
<defs>
<clipPath id="clip0_0_1">
<rect width="360" height="800" fill="white"/>
</clipPath>
</defs>
</svg>
